<?xml version="1.0" standalone="no"?>
<!DOCTYPE svg PUBLIC "-//W3C//DTD SVG 20010904//EN"
 "http://www.w3.org/TR/2001/REC-SVG-20010904/DTD/svg10.dtd">
<svg version="1.0" xmlns="http://www.w3.org/2000/svg"
 width="225.000000pt" height="225.000000pt" viewBox="0 0 225.000000 225.000000"
 preserveAspectRatio="xMidYMid meet">
<metadata>
Created by potrace 1.16, written by Peter Selinger 2001-2019
</metadata>
<g transform="translate(0.000000,225.000000) scale(0.100000,-0.100000)"
fill="#000000" stroke="none">
<path d="M434 2237 c-146 -38 -262 -170 -280 -319 -10 -86 -6 -88 142 -88
l124 0 0 -28 c0 -15 8 -39 17 -52 24 -34 618 -747 659 -790 l34 -36 0 -294 c0
-162 -3 -305 -6 -318 -7 -26 -51 -52 -89 -52 -63 0 -141 -54 -176 -122 -21
-42 -25 -108 -7 -126 17 -17 799 -17 816 0 29 29 4 129 -46 181 -37 39 -73 57
-140 67 -74 12 -92 33 -92 109 0 62 -11 81 -47 81 -33 0 -46 -34 -40 -102 9
-102 62 -160 156 -171 56 -7 92 -26 116 -63 l15 -24 -331 0 -331 0 14 22 c26
38 61 58 116 65 63 7 108 35 136 83 20 33 21 54 24 325 l3 290 40 0 39 0 0
-42 c0 -44 19 -73 49 -73 31 0 41 22 41 92 l0 68 208 247 c472 563 492 587
498 619 8 41 -1 66 -33 98 -25 26 -27 26 -179 26 -85 0 -154 2 -154 5 0 3 41
66 91 141 57 85 89 143 87 156 -4 26 -30 43 -51 35 -9 -3 -66 -81 -127 -172
l-110 -165 -356 2 -356 3 -19 61 c-35 114 -126 214 -229 249 -62 22 -165 27
-226 12z m192 -90 c7 -6 -87 -177 -98 -177 -8 0 -98 155 -98 169 0 5 10 12 23
15 28 6 166 1 173 -7z m-227 -139 l50 -88 -105 0 c-105 0 -105 0 -98 23 16 52
89 166 99 155 2 -2 26 -42 54 -90z m355 40 c34 -40 66 -112 54 -123 -3 -3 -49
-4 -101 -3 l-96 3 46 83 c26 45 50 82 54 82 4 0 24 -19 43 -42z m804 -227 c-1
-4 -25 -42 -53 -84 l-50 -77 -416 0 -417 0 -43 53 c-69 81 -72 86 -65 102 5
13 71 15 527 15 286 0 519 -4 517 -9z m448 -6 c4 -9 -16 -42 -51 -85 l-57 -70
-169 0 -169 0 56 85 57 85 164 0 c136 0 165 -2 169 -15z m-786 -271 c-16 -41
-12 -102 10 -144 l20 -39 -36 -57 c-38 -59 -40 -96 -8 -108 29 -11 51 3 87 59
34 50 38 54 70 48 82 -13 173 48 197 132 11 40 10 63 -6 118 -5 16 6 17 125
17 72 0 131 -2 131 -5 0 -10 -473 -570 -493 -584 -28 -20 -94 -17 -122 5 -13
11 -130 146 -259 302 l-236 282 265 0 265 0 -10 -26z m223 6 c33 -26 43 -70
23 -108 -29 -57 -107 -65 -146 -15 -29 37 -26 79 9 114 35 35 77 38 114 9z"/>
</g>
</svg>
